Coordinates
version=1
nRows=43
nColumns=12
inDegrees=yes

Units are S.I. units (second, meters, Newtons, ...)
Angles are in degrees

endheader
time	SC_y	SC_z	SC_x	AC_y	AC_z	AC_x	GH_y	GH_z	GH_yy	EL_x	PS_y
       0.0              -49.81          39.83          2.543          69.51          6.185          18.98          119.4          78.68          128.8          106.0          43.49
   0.02138              -49.81          39.83          2.549          69.51          6.181          18.98          119.4          78.67          128.8          106.0           43.5
   0.04277              -49.81          39.82          2.556           69.5          6.177          18.97          119.4          78.67          128.7          106.0          43.51
   0.06415              -49.81          39.82          2.563           69.5          6.173          18.97          119.4          78.66          128.7          106.0          43.52
   0.08553              -49.81          39.81          2.571          69.49          6.168          18.97          119.3          78.65          128.7          106.0          43.54
    0.1069              -49.81          39.81           2.58          69.49          6.164          18.96          119.3          78.64          128.7          106.0          43.55
    0.1283              -49.81           39.8          2.588          69.48          6.159          18.96          119.3          78.64          128.6          106.0          43.57
    0.1497              -49.81           39.8          2.598          69.48          6.153          18.95          119.3          78.63          128.6          106.0          43.59
    0.1711              -49.81          39.79          2.608          69.47          6.147          18.95          119.2          78.62          128.6          106.0          43.61
    0.1924              -49.81          39.79          2.619          69.47          6.141          18.95          119.2          78.61          128.5          106.0          43.63
    0.2138              -49.81          39.78          2.631          69.46          6.134          18.94          119.1           78.6          128.5          106.0          43.65
    0.2352              -49.81          39.77          2.643          69.45          6.127          18.93          119.1          78.59          128.5          106.0          43.67
    0.2566              -49.82          39.77          2.657          69.44          6.119          18.93          119.1          78.57          128.4          106.0           43.7
     0.278              -49.82          39.76          2.672          69.43          6.111          18.92          119.0          78.56          128.4          106.0          43.73
    0.2994              -49.82          39.75          2.687          69.43          6.102          18.91          119.0          78.55          128.3          106.0          43.76
    0.3207              -49.82          39.74          2.705          69.42          6.092          18.91          118.9          78.53          128.3          106.0          43.79
    0.3421              -49.82          39.73          2.723           69.4          6.081           18.9          118.8          78.51          128.2          106.1          43.82
    0.3635              -49.82          39.72          2.744          69.39          6.069          18.89          118.8          78.49          128.2          106.1          43.86
    0.3849              -49.82           39.7          2.766          69.38          6.057          18.88          118.7          78.47          128.1          106.1           43.9
    0.4063              -49.83          39.69           2.79          69.36          6.043          18.87          118.6          78.45          128.0          106.1          43.95
    0.4277              -49.83          39.67          2.817          69.35          6.027          18.86          118.5          78.43          127.9          106.1           44.0
     0.449              -49.83          39.66          2.847          69.33           6.01          18.84          118.4           78.4          127.9          106.1          44.05
    0.4704              -49.83          39.64          2.879          69.31          5.991          18.83          118.3          78.37          127.8          106.1          44.11
    0.4918              -49.84          39.62          2.915          69.29          5.971          18.81          118.2          78.34          127.6          106.1          44.18
    0.5132              -49.84           39.6          2.955          69.27          5.948          18.79          118.0           78.3          127.5          106.1          44.25
    0.5346              -49.84          39.57            3.0          69.24          5.922          18.77          117.9          78.26          127.4          106.1          44.34
     0.556              -49.85          39.54           3.05          69.21          5.893          18.75          117.7          78.21          127.2          106.1          44.43
    0.5773              -49.85          39.51          3.106          69.18          5.861          18.73          117.5          78.16          127.1          106.2          44.54
    0.5987              -49.86          39.47           3.17          69.14          5.824           18.7          117.3           78.1          126.9          106.2          44.65
    0.6201              -49.86          39.43          3.242           69.1          5.783          18.67          117.1          78.04          126.6          106.2          44.79
    0.6415              -49.87          39.38          3.325          69.05          5.735          18.63          116.8          77.96          126.4          106.2          44.94
    0.6629              -49.88          39.33           3.42          68.99          5.681          18.59          116.5          77.87          126.1          106.3          45.12
    0.6843              -49.89          39.27          3.529          68.93          5.618          18.54          116.1          77.77          125.8          106.3          45.32
    0.7056               -49.9          39.19          3.656          68.86          5.545          18.48          115.7          77.66          125.4          106.3          45.56
     0.727              -49.91          39.11          3.805          68.77          5.459          18.41          115.1          77.52          124.9          106.4          45.84
    0.7484              -49.92          39.01           3.98          68.66          5.359          18.33          114.5          77.36          124.4          106.4          46.16
    0.7698              -49.94          38.89          4.188          68.54          5.239          18.24          113.8          77.17          123.8          106.5          46.55
    0.7912              -49.96          38.75          4.438           68.4          5.096          18.13          113.0          76.94          123.0          106.6          47.01
    0.8126              -49.98          38.58           4.74          68.22          4.922          17.99          112.0          76.67          122.1          106.7          47.58
    0.8339              -50.01          38.36          5.109           68.0           4.71          17.83          110.7          76.33          121.0          106.8          48.26
    0.8553              -50.05           38.1          5.564          67.73          4.448          17.62          109.2          75.91          119.6          106.9          49.11
    0.8767              -50.09          37.78          6.132           67.4          4.122          17.37          107.2          75.39          117.8          107.1          50.17
    0.8981              -50.15          37.37          6.847          66.98          3.711          17.05          104.8          74.74          115.6          107.3           51.5
